<svg xmlns="http://www.w3.org/2000/svg" viewBox="0 0 32 32" width="32" height="32">
  <defs>
    <linearGradient id="grad1" x1="0%" y1="0%" x2="100%" y2="100%">
      <stop offset="0%" style="stop-color:#667eea"/>
      <stop offset="100%" style="stop-color:#764ba2"/>
    </linearGradient>
    <linearGradient id="grad2" x1="0%" y1="0%" x2="100%" y2="100%">
      <stop offset="0%" style="stop-color:#4facfe"/>
      <stop offset="100%" style="stop-color:#00f2fe"/>
    </linearGradient>
  </defs>
  <circle cx="16" cy="16" r="15" fill="url(#grad1)"/>
  <path d="M8 9 L8 23 L10 23 L10 17 L14 17 L14 23 L16 23 L16 9 L14 9 L14 15 L10 15 L10 9 Z" fill="white"/>
  <path d="M18 9 L18 23 L20 23 L20 17 L22 17 C23.1 17 24 16.1 24 15 L24 11 C24 9.9 23.1 9 22 9 Z M20 11 L20 15 L22 15 L22 11 Z" fill="url(#grad2)"/>
  <rect x="10" y="7" width="1" height="1" fill="white" opacity="0.8"/>
  <rect x="22" y="7" width="1" height="1" fill="white" opacity="0.8"/>
</svg>
